<?xml version="1.0" encoding="UTF-8"?>
<svg xmlns="http://www.w3.org/2000/svg" version="1.1" viewBox="0 0 23 23">
  <!-- Generator: Adobe Illustrator 28.7.1, SVG Export Plug-In . SVG Version: 1.2.0 Build 142)  -->
  <g>
    <g id="Calque_1">
      <g>
        <path d="M16.5,1.4c1.2,0,2.2.4,3.1,1.1,1.4,1.1,2.1,2.6,2,4.4,0,1-.4,1.9-1.1,2.7-.2.2-.3.4-.5.6-1.2,1.2-2.4,2.4-3.6,3.6-.9.9-1.9,1.3-3.1,1.4-1.2.1-2.3-.2-3.3-.9-.3-.2-.6-.4-.8-.8-.6-.7-.1-1.9.8-2,.4,0,.8,0,1.1.4,1.1,1,2.6,1,3.6,0,1.2-1.2,2.4-2.4,3.6-3.6,1-1,1-2.6,0-3.7-1-1-2.6-1-3.6,0-.6.6-1.2,1.2-1.8,1.8-.5.5-1.2.6-1.8.1-.5-.4-.6-1.1-.2-1.7,0,0,.1-.2.2-.3.5-.5,1.1-1.1,1.6-1.6.8-.9,1.9-1.4,3.1-1.5.2,0,.4,0,.7,0Z"/>
        <path d="M6.6,21.6c-1.2,0-2.2-.3-3.1-1-1.5-1.2-2.2-2.8-2-4.7,0-.9.5-1.8,1-2.5.2-.2.4-.4.6-.6,1.2-1.2,2.3-2.4,3.5-3.5.9-.8,1.9-1.3,3.1-1.4,1.2-.1,2.3.2,3.3.9.3.2.6.4.8.7.6.7.1,1.9-.8,2-.4,0-.8,0-1.1-.4-1-1-2.6-1-3.6,0-1.2,1.2-2.4,2.4-3.6,3.6-.7.8-1,1.7-.6,2.7.3,1,1.1,1.6,2.1,1.7.8.1,1.5-.1,2.1-.7.6-.6,1.2-1.2,1.8-1.8.4-.4,1.1-.5,1.6-.2.7.4.9,1.4.3,2-.6.6-1.2,1.3-1.9,1.9-1,.9-2.2,1.4-3.5,1.4Z"/>
      </g>
    </g>
  </g>
</svg>