<?xml version="1.0" encoding="utf-8"?>
<!-- Generator: Adobe Illustrator 28.1.0, SVG Export Plug-In . SVG Version: 6.00 Build 0)  -->
<svg version="1.1" id="Calque_1" xmlns="http://www.w3.org/2000/svg" xmlns:xlink="http://www.w3.org/1999/xlink" x="0px" y="0px"
	 viewBox="0 0 18 18" style="enable-background:new 0 0 18 18;" xml:space="preserve">
<style type="text/css">
	
</style>
<g>
	<polygon class="st0" points="9,13 4.1,16.6 6,10.8 1.1,7.3 7.1,7.3 9,1.5 10.9,7.3 16.9,7.3 12,10.8 13.9,16.6 	"/>
	<path d="M9,3.1l1.3,3.9l0.2,0.7h0.7h4.1L12,10.2l-0.6,0.4l0.2,0.7l1.3,3.9l-3.4-2.4L9,12.4l-0.6,0.4l-3.4,2.4l1.3-3.9l0.2-0.7
		L6,10.2L2.6,7.8h4.1h0.7l0.2-0.7L9,3.1 M9,0.7C8.8,0.7,8.7,0.8,8.6,1L6.8,6.8H0.7c-0.4,0-0.5,0.5-0.2,0.7L5.4,11l-1.9,5.8
		c-0.1,0.3,0.1,0.5,0.4,0.5c0.1,0,0.2,0,0.2-0.1L9,13.6l4.9,3.6c0.1,0.1,0.1,0.1,0.2,0.1c0.2,0,0.4-0.2,0.4-0.5L12.6,11l4.9-3.6
		c0.3-0.2,0.1-0.7-0.2-0.7h-6.1L9.4,1C9.3,0.8,9.2,0.7,9,0.7L9,0.7z"/>
</g>
</svg>
