<?xml version="1.0" encoding="UTF-8"?>
<svg xmlns="http://www.w3.org/2000/svg" version="1.1" viewBox="0 0 23 23">
  <!-- Generator: Adobe Illustrator 28.7.1, SVG Export Plug-In . SVG Version: 1.2.0 Build 142)  -->
  <g>
    <g id="Calque_1">
      <g>
        <path d="M13.5,11.5c0,1.1-.9,2-2,2s-2-.9-2-2,.9-2,2-2,2,.9,2,2Z"/>
        <path d="M22.5,11c-3.6-4.1-7.2-6.3-10.8-6.4,0,0-.1,0-.2,0,0,0,0,0,0,0-3.7,0-7.3,2.2-10.9,6.4-.1.1-.2.3-.2.5,0,.2,0,.4.2.5,3.7,4.2,7.5,6.4,11.1,6.4,0,0,0,0,.1,0,3.7,0,7.3-2.2,10.7-6.5.1-.1.2-.3.2-.5,0-.2,0-.4-.2-.5ZM11.5,17c-3,0-5.5-2.5-5.5-5.5s2.5-5.5,5.5-5.5,5.5,2.5,5.5,5.5-2.5,5.5-5.5,5.5ZM1.8,11.5c1.2-1.4,2.4-2.5,3.6-3.4-.6,1-.9,2.2-.9,3.4s.3,2.2.7,3.1c-1.1-.8-2.3-1.9-3.5-3.1ZM17.4,15.1c.6-1.1,1-2.3,1-3.6s-.3-2.3-.8-3.3c1.2.9,2.4,2,3.7,3.3-1.3,1.5-2.5,2.7-3.8,3.6Z"/>
      </g>
    </g>
  </g>
</svg>