<?xml version="1.0" encoding="utf-8"?>
<!-- Generator: Adobe Illustrator 28.1.0, SVG Export Plug-In . SVG Version: 6.00 Build 0)  -->
<svg version="1.1" id="Calque_1" xmlns="http://www.w3.org/2000/svg" xmlns:xlink="http://www.w3.org/1999/xlink" x="0px" y="0px"
	 viewBox="0 0 23 23" style="enable-background:new 0 0 23 23;" xml:space="preserve">
<style type="text/css">
	.st0{fill:none;stroke:#000000;stroke-width:2;}
</style>
<path class="st0" d="M13.2,7.5l-4.5,3 M8.8,12.5l4.5,3 M18.8,5.5c0,1.7-1.3,3-3,3s-3-1.3-3-3s1.3-3,3-3S18.8,3.8,18.8,5.5z
	 M18.8,17.5c0,1.7-1.3,3-3,3s-3-1.3-3-3s1.3-3,3-3S18.8,15.8,18.8,17.5z M9.8,11.5c0,1.7-1.3,3-3,3s-3-1.3-3-3c0-1.7,1.3-3,3-3
	S9.8,9.8,9.8,11.5z"/>
</svg>
